<svg width="155" height="141" viewBox="0 0 155 141" fill="none" xmlns="http://www.w3.org/2000/svg">
        <path d="M11.2602 117.081C11.2602 117.371 11.1875 117.662 11.1147 117.879C11.042 118.097 10.8965 118.314 10.6782 118.532C10.46 118.75 10.3145 118.822 10.0962 118.967C9.87797 119.112 9.58696 119.112 9.29595 119.112C9.00495 119.112 8.71395 119.04 8.4957 118.895C8.27745 118.75 8.05919 118.604 7.91369 118.314C7.76819 118.024 7.62268 117.807 7.54993 117.444C7.47718 117.081 7.40443 116.719 7.40443 116.283C7.40443 115.776 7.47718 115.268 7.54993 114.833C7.62268 114.397 7.84094 114.035 8.05919 113.744C8.27744 113.454 8.56845 113.164 8.85945 113.019C9.15046 112.874 9.51421 112.801 9.87796 112.801C10.3145 112.801 10.6055 112.874 10.8965 112.946V113.599C10.6055 113.454 10.2417 113.382 9.87796 113.382C9.58696 113.382 9.36871 113.454 9.15045 113.599C8.9322 113.744 8.71395 113.89 8.56844 114.107C8.42294 114.325 8.27744 114.615 8.20469 114.905C8.13194 115.195 8.05919 115.558 8.05919 115.921C8.35019 115.413 8.78671 115.195 9.44146 115.195C9.73247 115.195 9.95072 115.268 10.169 115.34C10.3872 115.413 10.5327 115.558 10.751 115.703C10.9692 115.848 11.042 116.066 11.1147 116.283C11.1875 116.501 11.2602 116.791 11.2602 117.081ZM10.5327 117.154C10.5327 116.936 10.5327 116.719 10.46 116.573C10.3872 116.428 10.3145 116.283 10.2417 116.138C10.169 115.993 10.0235 115.921 9.87796 115.848C9.73246 115.776 9.58696 115.775 9.36871 115.775C9.22321 115.775 9.00496 115.776 8.85945 115.848C8.71395 115.921 8.56845 115.993 8.4957 116.138C8.42295 116.283 8.27744 116.356 8.27744 116.501C8.27744 116.646 8.20469 116.791 8.20469 117.009C8.20469 117.226 8.20469 117.444 8.27744 117.589C8.35019 117.734 8.42295 117.952 8.4957 118.097C8.56845 118.242 8.71395 118.314 8.85945 118.387C9.00496 118.459 9.15046 118.532 9.36871 118.532C9.51421 118.532 9.73246 118.532 9.87796 118.46C10.0235 118.387 10.169 118.314 10.2417 118.169C10.3145 118.024 10.3872 117.879 10.46 117.734C10.5327 117.589 10.5327 117.371 10.5327 117.154Z" fill="white"></path>
        <path d="M17.153 119.04H16.3528L15.698 117.299H13.079L12.497 119.04H11.6967L14.0247 112.946H14.7522L17.153 119.04ZM15.4797 116.646L14.534 114.035C14.534 113.962 14.4612 113.817 14.4612 113.599C14.4612 113.744 14.3885 113.889 14.3885 114.035L13.4427 116.646H15.4797Z" fill="white"></path>
        <path d="M18.026 119.04V112.946H19.6993C21.8818 112.946 22.9004 113.962 22.9004 115.921C22.9004 116.864 22.6093 117.589 22.0273 118.169C21.4453 118.75 20.6451 119.04 19.6266 119.04H18.026ZM18.7535 113.599V118.387H19.6993C20.4996 118.387 21.1543 118.169 21.5908 117.734C22.0273 117.299 22.2456 116.719 22.2456 115.921C22.2456 114.325 21.4453 113.599 19.7721 113.599H18.7535Z" fill="white"></path>
        <path d="M26.9744 112.946V116.936H27.7747V117.589H26.9744V119.04H26.3196V117.589H23.4824V117.009C23.7734 116.719 23.9916 116.356 24.2826 116.066C24.5736 115.776 24.7919 115.413 25.0829 115.05C25.3739 114.687 25.5921 114.325 25.7376 113.962C25.8831 113.599 26.1014 113.309 26.2469 112.946H26.9744ZM24.2099 116.936H26.3196V113.962C26.1014 114.325 25.8831 114.687 25.7376 114.978C25.5921 115.268 25.3739 115.558 25.2284 115.775C25.0829 115.993 24.8646 116.211 24.7191 116.428C24.5736 116.646 24.3554 116.791 24.2099 116.936Z" fill="white"></path>
        <path d="M28.8659 119.04V112.946H30.5392C32.7218 112.946 33.7403 113.962 33.7403 115.921C33.7403 116.864 33.4493 117.589 32.8672 118.169C32.2852 118.75 31.485 119.04 30.4665 119.04H28.8659ZM29.5934 113.599V118.387H30.5392C31.3395 118.387 31.9942 118.169 32.4308 117.734C32.8673 117.299 33.0855 116.719 33.0855 115.921C33.0855 114.325 32.2853 113.599 30.612 113.599H29.5934Z" fill="white"></path>
        <path d="M38.469 113.309C38.3963 113.454 38.2508 113.672 38.1053 113.89C37.9598 114.107 37.8143 114.397 37.6688 114.687C37.5233 114.978 37.3778 115.34 37.2323 115.63C37.0868 115.921 36.9413 116.356 36.7958 116.718C36.6503 117.081 36.5775 117.444 36.432 117.807C36.2865 118.169 36.2865 118.532 36.2138 118.895H35.4862C35.559 118.532 35.6318 118.169 35.7045 117.807C35.7773 117.444 35.9228 117.081 36.0683 116.718C36.2138 116.356 36.3593 115.993 36.5048 115.63C36.6503 115.268 36.7958 114.978 36.9413 114.687C37.0868 114.397 37.2323 114.18 37.305 113.962C37.3778 113.744 37.5233 113.599 37.596 113.454H34.5405V112.801H38.3963V113.309H38.469Z" fill="white"></path>
        <path d="M40.2879 72.791C40.2879 50.6996 58.1965 32.791 80.2879 32.791H105.049C127.141 32.791 145.049 50.6996 145.049 72.791V94.4491H40.2879V72.791Z" fill="url(#paint0_linear_5250_69230)"></path>
        <rect x="103.581" y="58.1796" width="5.82008" height="31.1917" rx="2.91004" fill="#979593"></rect>
        <rect x="16.2801" y="94.449" width="138.227" height="9.43005" rx="4.71503" fill="#89D1D1"></rect>
        <ellipse cx="106.491" cy="60.3558" rx="6.54758" ry="6.5285" fill="#F3F3F3"></ellipse>
        <path fillRule="evenodd" clipRule="evenodd" d="M120.314 72.6874H115.949V72.6874H109.401V84.2935H115.949V84.2935H120.314L115.949 78.4904L120.314 72.6874Z" fill="#EE8F94"></path>
        <rect x="83.4197" y="103.879" width="4.35233" height="36.2694" fill="#ACACAC"></rect>
        <rect x="87.772" y="103.879" width="11.6062" height="36.2694" fill="#C7C7C7"></rect>
        <path d="M39.8964 57.4542C39.8964 43.8331 50.9385 32.791 64.5596 32.791C78.1807 32.791 89.2228 43.8331 89.2228 57.4542V94.449H39.8964V57.4542Z" fill="#6AD4D7"></path>
        <path d="M45.2753 37.8549L43.2447 44.0046L49.8051 43.8772L45.2753 37.8549Z" fill="#E3646A"></path>
        <rect x="58.3679" y="27.6818" width="1.13859" height="6.5285" rx="0.569297" transform="rotate(-37.5528 58.3679 27.6818)" fill="#8A8886"></rect>
        <path fillRule="evenodd" clipRule="evenodd" d="M65.2849 31.6409H65.2072C62.4457 31.6409 60.2072 33.8795 60.2072 36.6409V36.7187H62.2072V36.6409C62.2072 34.9841 63.5503 33.6409 65.2072 33.6409H65.2849V31.6409Z" fill="#8A8886"></path>
        <path fillRule="evenodd" clipRule="evenodd" d="M64.5595 31.6409H64.4818C61.7204 31.6409 59.4818 33.8795 59.4818 36.6409V36.7187H60.9818V36.6409C60.9818 34.7079 62.5488 33.1409 64.4818 33.1409H64.5595V31.6409Z" fill="#8A8886"></path>
        <path fillRule="evenodd" clipRule="evenodd" d="M63.8341 31.6409H63.7564C60.995 31.6409 58.7564 33.8795 58.7564 36.6409V36.7187H60.2564V36.6409C60.2564 34.7079 61.8234 33.1409 63.7564 33.1409H63.8341V31.6409Z" fill="#8A8886"></path>
        <circle cx="65.2849" cy="32.3663" r="0.725389" fill="#8A8886"></circle>
        <circle cx="59.4818" cy="36.7187" r="0.725389" fill="#8A8886"></circle>
        <circle cx="60.9326" cy="36.7187" r="0.725389" fill="#8A8886"></circle>
        <circle cx="60.2072" cy="36.7187" r="0.725389" fill="#8A8886"></circle>
        <rect x="54.4041" y="27.6818" width="1.13859" height="6.5285" rx="0.569297" transform="rotate(-37.5528 54.4041 27.6818)" fill="#8A8886"></rect>
        <path fillRule="evenodd" clipRule="evenodd" d="M61.321 31.6409H61.2433C58.4819 31.6409 56.2433 33.8795 56.2433 36.6409V36.7187H58.2433V36.6409C58.2433 34.9841 59.5865 33.6409 61.2433 33.6409H61.321V31.6409Z" fill="#8A8886"></path>
        <path fillRule="evenodd" clipRule="evenodd" d="M60.5957 31.6409H60.518C57.7565 31.6409 55.518 33.8795 55.518 36.6409V36.7187H57.018V36.6409C57.018 34.7079 58.585 33.1409 60.518 33.1409H60.5957V31.6409Z" fill="#8A8886"></path>
        <path fillRule="evenodd" clipRule="evenodd" d="M59.8703 31.6409H59.7926C57.0311 31.6409 54.7926 33.8795 54.7926 36.6409V36.7187H56.2926V36.6409C56.2926 34.7079 57.8596 33.1409 59.7926 33.1409H59.8703V31.6409Z" fill="#8A8886"></path>
        <circle cx="61.3211" cy="32.3663" r="0.725389" fill="#8A8886"></circle>
        <circle cx="55.518" cy="36.7187" r="0.725389" fill="#8A8886"></circle>
        <circle cx="56.9687" cy="36.7187" r="0.725389" fill="#8A8886"></circle>
        <circle cx="56.2433" cy="36.7187" r="0.725389" fill="#8A8886"></circle>
        <path fillRule="evenodd" clipRule="evenodd" d="M34.8542 35.1721L61.658 0.148438H70L57.6684 14.2935C59.6027 16.4697 62.8912 22.4179 60.5699 28.8013C58.2487 35.1847 49.81 37.8686 46.4249 38.2313L46.3312 38.2115C46.3928 38.5716 46.4249 38.9418 46.4249 39.3194C46.4249 42.925 43.5019 45.8479 39.8964 45.8479C36.2908 45.8479 33.3679 42.925 33.3679 39.3194C33.3679 37.9782 33.7723 36.7315 34.4658 35.6946L34.4559 35.6925L34.57 35.5435C34.6603 35.4163 34.7551 35.2924 34.8542 35.1721Z" fill="#EE8F94"></path>
        <path d="M46.9056 25.7787C47.4853 23.6786 52.573 16.3537 55.3308 13.004C57.8312 17.4788 61.1399 25.8608 56.4868 30.5798C51.1359 36.0064 45.5694 30.619 46.9056 25.7787Z" fill="#E3646A"></path>
        <ellipse cx="41.5052" cy="41.4833" rx="1.45078" ry="0.735162" transform="rotate(-35.3048 41.5052 41.4833)" fill="black"></ellipse>
        <path d="M45.6995 58.1794C45.6995 47.7633 54.1434 39.3193 64.5596 39.3193C74.9757 39.3193 83.4197 47.7633 83.4197 58.1794V94.4489H45.6995V58.1794Z" fill="#49ACAC"></path>
        <defs>
          <linearGradient id="paint0_linear_5250_69230" x1="92.6686" y1="32.791" x2="92.6686" y2="94.4491" gradientUnits="userSpaceOnUse">
            <stop stopColor="#B8EEEE"></stop>
            <stop offset="1" stopColor="#69BDBD"></stop>
          </linearGradient>
        </defs>
      </svg>