<svg xmlns="http://www.w3.org/2000/svg" viewBox="0 0 480 480" width="480" height="480" preserveAspectRatio="xMidYMid meet" style="width: 100%; height: 100%; transform: translate3d(0px, 0px, 0px);"><defs><clipPath id="__lottie_element_2"><rect width="480" height="480" x="0" y="0"></rect></clipPath></defs><g clip-path="url(#__lottie_element_2)"><g transform="matrix(10,0,0,10,37.5,37.5)" opacity="1" style="display: block;"><g opacity="1" transform="matrix(1,0,0,1,20.25,19.757999420166016)"><path fill="rgb(33,0,196)" fill-opacity="1" d=" M0,-19.507999420166016 C-11.045999526977539,-19.507999420166016 -20,-10.553999900817871 -20,0.492000013589859 C-20,9.378999710083008 -14.199000358581543,16.902999877929688 -6.179999828338623,19.507999420166016 C-6.179999828338623,19.507999420166016 -3.7939999103546143,19.993000030517578 -0.24400000274181366,19.986000061035156 C3.305999994277954,19.979000091552734 6.179999828338623,19.507999420166016 6.179999828338623,19.507999420166016 C14.199000358581543,16.902999877929688 20,9.378999710083008 20,0.492000013589859 C20,-10.553999900817871 11.045999526977539,-19.507999420166016 0,-19.507999420166016z"></path></g></g><g transform="matrix(9.991292953491211,-0.41721612215042114,0.41721612215042114,9.991292953491211,23.554840087890625,44.34459686279297)" opacity="1" style="display: block;"><g opacity="1" transform="matrix(1,0,0,1,19.729999542236328,24.25)"><path fill="rgb(221,186,255)" fill-opacity="1" d=" M-4.297999858856201,8.35200023651123 C-4.47001314163208,8.236821174621582 -4.666688442230225,8.0391845703125 -5.110000133514404,7.755000114440918 C-5.549649238586426,7.463490962982178 -6.613459587097168,7.102683067321777 -7.397311687469482,7.193778991699219 C-8.285906791687012,7.290734767913818 -9.603636741638184,7.847158432006836 -10.374329566955566,8.09511661529541 C-11.077337265014648,8.336387634277344 -11.902181625366211,8.211408615112305 -12.404280662536621,8.029937744140625 C-12.704547882080078,7.99291467666626 -12.939410209655762,8.205353736877441 -12.973207473754883,8.398436546325684 C-12.998934745788574,8.577042579650879 -12.922114372253418,8.89853572845459 -12.544706344604492,9.171348571777344 C-12.164368629455566,9.436103820800781 -11.62659740447998,9.736411094665527 -10.51529598236084,9.608251571655273 C-9.4039945602417,9.480093002319336 -8.231636047363281,9.151244163513184 -6.804472923278809,9.6072359085083 C-5.595488548278809,9.995368957519531 -5.477262496948242,10.675464630126953 -4.426262378692627,10.803464889526367 C-4.426262378692627,10.803464889526367 -3.4820985794067383,10.911181449890137 -3.488098621368408,9.917181968688965 C-3.500098705291748,8.905181884765625 -4.116465091705322,8.460586547851562 -4.297999858856201,8.35200023651123z"></path></g></g><g transform="matrix(9.975138664245605,-0.7047090530395508,0.7047090530395508,9.975138664245605,28.399381637573242,48.04547119140625)" opacity="1" style="display: block;"><g opacity="1" transform="matrix(1,0,0,1,19.729999542236328,24.25)"><path fill="rgb(221,186,255)" fill-opacity="1" d=" M-4.314000129699707,-13.607000350952148 C-5.556000232696533,-14.486000061035156 -7.428999900817871,-15.496000289916992 -9.946000099182129,-16 C-9.946000099182129,-16 -11.229999542236328,-12.508000373840332 -10.201000213623047,-10.854000091552734 C-8.291999816894531,-7.63700008392334 -1.6549999713897705,-11.425000190734863 -4.314000129699707,-13.607000350952148z"></path></g></g><g transform="matrix(9.977975845336914,0.663318395614624,-0.663318395614624,9.977975845336914,47.435569763183594,20.203123092651367)" opacity="1" style="display: block;"><g opacity="1" transform="matrix(1,0,0,1,19.729999542236328,24.25)"><path fill="rgb(221,186,255)" fill-opacity="1" d=" M11.164999961853027,-10.923999786376953 C12.111000061035156,-12.605999946594238 10.859000205993652,-16 10.859000205993652,-16 C8.359000205993652,-15.5 6.492000102996826,-14.5 5.25,-13.62399959564209 C2.3570001125335693,-11.574999809265137 9.333000183105469,-7.699999809265137 11.164999961853027,-10.923999786376953z"></path></g></g><g transform="matrix(10,0,0,10,37.5,37.5)" opacity="1" style="display: block;"><g opacity="1" transform="matrix(1,0,0,1,19.729999542236328,24.25)"><path fill="rgb(221,186,255)" fill-opacity="1" d=" M-3.2709999084472656,4.77400016784668 C-4.013999938964844,5.646999835968018 -4.480000019073486,6.763999938964844 -4.480000019073486,8 C-4.480000019073486,8 -4.480000019073486,8.305000305175781 -4.480000019073486,8.305000305175781 C-4.4679999351501465,8.836999893188477 -4.480000019073486,10.050000190734863 -4.479000091552734,10.802000045776367 C-4.479000091552734,10.802000045776367 -4.478000164031982,14.00100040435791 -4.478000164031982,14.00100040435791 C-4.478000164031982,14.640000343322754 -5.063000202178955,15.12600040435791 -5.669000148773193,15.013999938964844 C-3.7249999046325684,15.668000221252441 -1.6469999551773071,16 0.5199999809265137,16 C2.686000108718872,16 4.763000011444092,15.668000221252441 6.710000038146973,15.015999794006348 C6.104000091552734,15.126999855041504 5.519999980926514,14.640999794006348 5.519999980926514,14.001999855041504 C5.519999980926514,14.001999855041504 5.519999980926514,8 5.519999980926514,8 C5.519999980926514,6.763999938964844 5.053999900817871,5.646999835968018 4.310999870300293,4.77400016784668 C3.058000087738037,3.2190001010894775 -1.7990000247955322,3.174999952316284 -3.2709999084472656,4.77400016784668z"></path></g></g><g transform="matrix(10,0,0,10,37.5,37.5)" opacity="1" style="display: block;"><g opacity="1" transform="matrix(1,0,0,1,19.729999542236328,24.25)"><path fill="rgb(221,186,255)" fill-opacity="1" d=" M13.520000457763672,-4.5 C13.520000457763672,-7.396999835968018 12.645000457763672,-9.465999603271484 11.164999961853027,-10.923999786376953 C10.270000457763672,-12.012999534606934 6.320000171661377,-13.61299991607666 5.25,-13.62399959564209 C3.7820000648498535,-13.885000228881836 2.190999984741211,-14 0.5199999809265137,-14 C-1.190000057220459,-14 -2.819000005722046,-13.881999969482422 -4.314000129699707,-13.607000350952148 C-5.918000221252441,-13.269000053405762 -8.942000389099121,-12.074999809265137 -10.201000213623047,-10.854000091552734 C-11.63700008392334,-9.399999618530273 -12.479999542236328,-7.348999977111816 -12.479999542236328,-4.5 C-12.479999542236328,1.621999979019165 -8.60099983215332,4.078000068664551 -3.2709999084472656,4.77400016784668 C-2.0179998874664307,4.936999797821045 2.5320000648498535,4.961999893188477 4.310999870300293,4.77400016784668 C9.640999794006348,4.078000068664551 13.520000457763672,1.621999979019165 13.520000457763672,-4.5z"></path></g></g></g></svg>