<svg width="36" height="32" viewBox="0 0 36 32" fill="none" xmlns="http://www.w3.org/2000/svg">
<path d="M15.9331 0.761902C20.725 0.761902 25.1617 2.8867 28.104 6.46631C28.4568 6.89557 28.3866 7.52289 27.947 7.86748C27.5075 8.21207 26.8652 8.14344 26.5124 7.71419C23.9534 4.60097 20.0995 2.75528 15.9331 2.75528C8.44499 2.75528 2.37463 8.6838 2.37463 15.997C2.37463 23.3101 8.44499 29.2387 15.9331 29.2387C20.1612 29.2387 24.066 27.3375 26.6212 24.1456C26.9684 23.7119 27.6097 23.6352 28.0538 23.9743C28.4978 24.3133 28.5763 24.9397 28.2292 25.3734C25.2911 29.0435 20.796 31.232 15.9331 31.232C7.31775 31.232 0.333572 24.411 0.333572 15.997C0.333572 7.5829 7.31775 0.761902 15.9331 0.761902ZM31.4002 11.3168L35.5238 15.4404C35.9223 15.839 35.9299 16.4776 35.5407 16.8668L31.5134 20.894C31.1242 21.2833 30.4856 21.2757 30.0871 20.8772C29.6885 20.4786 29.681 19.84 30.0702 19.4508L32.4266 17.0932L16.7205 17.0937C16.1569 17.0937 15.7 16.6475 15.7 16.097C15.7 15.5466 16.1569 15.1003 16.7205 15.1003L32.3641 15.099L29.9907 12.7264C29.5922 12.3278 29.5846 11.6892 29.9739 11.3C30.3631 10.9108 31.0017 10.9183 31.4002 11.3168Z" fill="white"/>
<path d="M35.5238 15.4404L31.4002 11.3168C31.0017 10.9183 30.3631 10.9108 29.9739 11.3C29.5846 11.6892 29.5922 12.3278 29.9907 12.7264L32.3641 15.099L16.7205 15.1003C16.1569 15.1003 15.7 15.5466 15.7 16.097C15.7 16.6475 16.1569 17.0937 16.7205 17.0937L32.4266 17.0932L30.0702 19.4508C29.681 19.84 29.6885 20.4786 30.0871 20.8772C30.4856 21.2757 31.1242 21.2833 31.5134 20.894L35.5407 16.8668C35.9299 16.4776 35.9223 15.839 35.5238 15.4404Z" fill="white"/>
</svg>
