<svg width="40" height="40" viewBox="0 0 40 40" fill="none" xmlns="http://www.w3.org/2000/svg">
<g id="logout" clip-path="url(#clip0_1_7)">
<circle id="logoutIconBg" cx="20" cy="20" r="20" fill="black"/>
<path id="logoutIcon" d="M29.686 24.0982L29.6861 24.0982L32.0056 21.7775L32.8587 20.924L31.652 20.924L16.1914 20.9244C15.9015 20.9244 15.6868 20.698 15.6868 20.4433C15.6868 20.1887 15.9015 19.9622 16.1914 19.9622H16.1914L31.5906 19.9609L32.7978 19.9608L31.944 19.1073L29.6077 16.7718C29.6077 16.7718 29.6077 16.7718 29.6077 16.7718C29.4028 16.5668 29.4111 16.2549 29.5912 16.0748C29.7712 15.8948 30.0832 15.8864 30.2881 16.0914L34.3473 20.1505C34.5523 20.3555 34.5439 20.6675 34.3639 20.8475L30.3996 24.8118C30.2195 24.9919 29.9076 25.0002 29.7026 24.7952C29.4976 24.5903 29.5059 24.2783 29.686 24.0982ZM20.3558 5.5C24.9239 5.5 29.1493 7.52513 31.9503 10.9328C32.1178 11.1366 32.0873 11.4335 31.8735 11.6011C31.6528 11.7741 31.3294 11.7371 31.156 11.5262C28.5416 8.34555 24.6061 6.46223 20.3558 6.46223C12.7197 6.46223 6.50917 12.5109 6.50917 19.997C6.50917 27.4832 12.7197 33.5318 20.3558 33.5318C24.669 33.5318 28.6566 31.5919 31.2672 28.3308C31.4375 28.118 31.7604 28.0766 31.9836 28.2471C32.1999 28.4122 32.234 28.7088 32.0694 28.9144C29.2726 32.4081 24.9916 34.494 20.3558 34.494C12.14 34.494 5.5 27.9924 5.5 19.997C5.5 12.0016 12.14 5.5 20.3558 5.5Z" fill="white" stroke="white"/>
</g>
<defs>
<clipPath id="clip0_1_7">
<rect width="40" height="40" fill="white"/>
</clipPath>
</defs>
</svg>
