<svg width="40" height="40" viewBox="0 0 40 40" fill="none" xmlns="http://www.w3.org/2000/svg">
<g id="logout-light" clip-path="url(#clip0_6_6)">
<g id="Group 1">
<circle id="logoutIconBg" cx="20" cy="20" r="20" fill="white"/>
<path id="logoutIcon" d="M34.6572 23.233L34.6572 23.2329L36.8664 21.0228L37.7194 20.1693L36.5127 20.1693L21.7883 20.1697C21.5248 20.1697 21.3315 19.9641 21.3315 19.7353C21.3315 19.5065 21.5248 19.3009 21.7883 19.3009H21.7883L36.4542 19.2997L37.6615 19.2996L36.8077 18.446L34.5826 16.2218C34.5826 16.2218 34.5826 16.2217 34.5826 16.2217C34.3963 16.0354 34.405 15.7534 34.5668 15.5917C34.7286 15.4298 35.0107 15.4212 35.197 15.6075L39.0628 19.4733C39.2491 19.6596 39.2404 19.9416 39.0786 20.1034L35.3031 23.879C35.1413 24.0408 34.8593 24.0494 34.673 23.8632C34.4867 23.6769 34.4954 23.3948 34.6572 23.233ZM19.8748 6.21429C24.2183 6.21429 28.2357 8.13983 30.8987 11.3797C31.0497 11.5634 31.0225 11.8309 30.8294 11.9823C30.6293 12.1392 30.3359 12.1053 30.1791 11.9146C27.6847 8.8799 23.9297 7.08308 19.8748 7.08308C12.5897 7.08308 6.66372 12.8539 6.66372 19.9972C6.66372 27.1405 12.5897 32.9113 19.8748 32.9113C23.9897 32.9113 27.7943 31.0605 30.2852 27.949C30.4393 27.7565 30.732 27.7187 30.9345 27.8733C31.1299 28.0225 31.1603 28.2898 31.012 28.4751C28.3529 31.7967 24.2826 33.7801 19.8748 33.7801C12.0628 33.7801 5.75023 27.5981 5.75023 19.9972C5.75023 12.3962 12.0628 6.21429 19.8748 6.21429Z" fill="black" stroke="black"/>
</g>
</g>
<defs>
<clipPath id="clip0_6_6">
<rect width="40" height="40" fill="white"/>
</clipPath>
</defs>
</svg>
